#N canvas 157 70 665 464 12;
#X obj 10 20 catch~ ch1;
#X obj 10 60 r ch1-vol;
#X obj 10 80 pack f 10;
#X obj 10 100 line~;
#X obj 10 130 *~;
#X obj 10 170 r ch1-gate;
#X obj 10 190 pack f 5;
#X obj 10 210 line~;
#X obj 10 240 *~;
#X obj 200 170 r ch1-fx;
#X obj 200 190 pack f 10;
#X obj 200 210 line~;
#X obj 200 240 *~;
#X obj 200 270 throw~ fx;
#X obj 10 300 r ch1-pan;
#X obj 10 330 panner;
#X obj 10 370 throw~ masterL;
#X obj 66 350 throw~ masterR;
#X obj 320 240 env~;
#X obj 320 260 - 100;
#X obj 320 280 s ch1-vu;
#X obj 10 420 loadbang;
#X msg 10 440 0.8;
#X obj 10 460 s ch1-vol;
#X msg 90 440 0.5;
#X obj 90 460 s ch1-pan;
#X msg 170 440 1;
#X obj 170 460 s ch1-gate;
#X msg 250 440 0;
#X obj 250 460 s ch1-fx;
#X connect 0 0 4 0;
#X connect 1 0 2 0;
#X connect 2 0 3 0;
#X connect 3 0 4 1;
#X connect 4 0 8 0;
#X connect 5 0 6 0;
#X connect 6 0 7 0;
#X connect 7 0 8 1;
#X connect 8 0 12 0;
#X connect 8 0 15 0;
#X connect 8 0 18 0;
#X connect 9 0 10 0;
#X connect 10 0 11 0;
#X connect 11 0 12 1;
#X connect 12 0 13 0;
#X connect 14 0 15 1;
#X connect 15 0 16 0;
#X connect 15 1 17 0;
#X connect 18 0 19 0;
#X connect 19 0 20 0;
#X connect 21 0 22 0;
#X connect 21 0 24 0;
#X connect 21 0 26 0;
#X connect 21 0 28 0;
#X connect 22 0 23 0;
#X connect 24 0 25 0;
#X connect 26 0 27 0;
#X connect 28 0 29 0;
