#N canvas 0 0 300 340 12;
#X obj 10 20 catch~ fx;
#X obj 10 60 rev2~ 100 85 3000 20;
#X obj 10 110 r fxReturn;
#X obj 10 130 pack f 10;
#X obj 10 150 line~;
#X obj 10 180 *~;
#X obj 60 180 *~;
#X obj 10 220 throw~ masterL;
#X obj 60 220 throw~ masterR;
#X obj 10 270 loadbang;
#X msg 10 290 0;
#X obj 10 310 s fxReturn;
#X connect 0 0 1 0;
#X connect 1 0 5 0;
#X connect 1 1 6 0;
#X connect 2 0 3 0;
#X connect 3 0 4 0;
#X connect 4 0 5 1;
#X connect 4 0 6 1;
#X connect 5 0 7 0;
#X connect 6 0 8 0;
#X connect 9 0 10 0;
#X connect 10 0 11 0;
