#N canvas 0 0 600 400 12;
#X obj 30 30 inlet~;
#X obj 130 30 inlet~;
#X obj 250 30 r masterPan;
#X obj 250 60 pack f 10;
#X obj 250 80 line~;
#X obj 250 110 expr~ ($v1<=0.5)+(($v1>0.5)*(2-2*$v1));
#X obj 380 110 expr~ ($v1<=0.5)*(1-2*$v1);
#X obj 510 110 expr~ ($v1>0.5)*(2*$v1-1);
#X obj 250 150 expr~ ($v1<=0.5)*(2*$v1)+($v1>0.5);
#X obj 30 200 *~;
#X obj 130 200 *~;
#X obj 230 200 *~;
#X obj 330 200 *~;
#X obj 30 270 +~;
#X obj 230 270 +~;
#X obj 30 320 outlet~;
#X obj 230 320 outlet~;
#X connect 0 0 9 0;
#X connect 0 0 11 0;
#X connect 1 0 10 0;
#X connect 1 0 12 0;
#X connect 2 0 3 0;
#X connect 3 0 4 0;
#X connect 4 0 5 0;
#X connect 4 0 6 0;
#X connect 4 0 7 0;
#X connect 4 0 8 0;
#X connect 5 0 9 1;
#X connect 6 0 10 1;
#X connect 7 0 11 1;
#X connect 8 0 12 1;
#X connect 9 0 13 0;
#X connect 10 0 13 1;
#X connect 11 0 14 0;
#X connect 12 0 14 1;
#X connect 13 0 15 0;
#X connect 14 0 16 0;
