#N canvas 0 0 400 400 12;
#X obj 10 20 catch~ masterL;
#X obj 80 20 catch~ masterR;
#X obj 10 60 r masterVol;
#X obj 10 80 pack f 10;
#X obj 10 100 line~;
#X obj 10 130 *~;
#X obj 80 130 *~;
#X obj 10 170 env~;
#X obj 10 190 - 100;
#X obj 10 210 s masterVu;
#X obj 10 240 dac~ 1 2;
#X obj 220 60 r hpVol;
#X obj 220 80 pack f 10;
#X obj 220 100 line~;
#X obj 220 130 *~;
#X obj 290 130 *~;
#X obj 220 240 dac~ 3 4;
#X obj 10 310 loadbang;
#X msg 10 330 0.8;
#X obj 10 350 s masterVol;
#X msg 90 330 0.8;
#X obj 90 350 s hpVol;
#X obj 120 170 *~ 0.5;
#X obj 190 170 *~ 0.5;
#X obj 120 200 +~;
#X obj 120 230 send~ sampler-src-master;
#X connect 0 0 5 0;
#X connect 1 0 6 0;
#X connect 2 0 3 0;
#X connect 3 0 4 0;
#X connect 4 0 5 1;
#X connect 4 0 6 1;
#X connect 5 0 7 0;
#X connect 5 0 10 0;
#X connect 5 0 14 0;
#X connect 6 0 7 1;
#X connect 6 0 10 1;
#X connect 6 0 15 0;
#X connect 7 0 8 0;
#X connect 8 0 9 0;
#X connect 11 0 12 0;
#X connect 12 0 13 0;
#X connect 13 0 14 1;
#X connect 13 0 15 1;
#X connect 14 0 16 0;
#X connect 15 0 16 1;
#X connect 17 0 18 0;
#X connect 17 0 20 0;
#X connect 18 0 19 0;
#X connect 20 0 21 0;
#X connect 5 0 22 0;
#X connect 6 0 23 0;
#X connect 22 0 24 0;
#X connect 23 0 24 1;
#X connect 24 0 25 0;
