#N canvas 0 0 717 562 12;
#X obj 10 20 catch~ masterL;
#X obj 80 20 catch~ masterR;
#X obj 10 60 r masterVol;
#X obj 10 80 pack f 10;
#X obj 10 100 line~;
#X obj 10 130 *~;
#X obj 80 130 *~;
#X obj 10 190 env~;
#X obj 10 210 - 100;
#X obj 10 230 s masterVuL;
#X obj 10 270 dac~ 1 2;
#X obj 220 60 r hpVol;
#X obj 220 80 pack f 10;
#X obj 220 100 line~;
#X obj 220 130 *~;
#X obj 290 130 *~;
#X obj 312 273 dac~ 3 4;
#X obj 10 340 loadbang;
#X msg 10 360 0;
#X obj 10 380 s masterVol;
#X msg 90 360 0;
#X obj 90 380 s hpVol;
#X obj 80 190 env~;
#X obj 80 210 - 100;
#X obj 80 230 s masterVuR;
#X obj 120 200 *~ 0.5;
#X obj 190 200 *~ 0.5;
#X obj 120 230 +~;
#X obj 120 260 send~ sampler-src-master;
#X obj 45 160 master-pan;
#X msg 170 360 0.5;
#X obj 170 380 s masterPan;
#X text 390 240 TTB-OUT-PATCH-V1;
#X obj 390 260 catch~ ttb-bus-L;
#X obj 390 285 catch~ ttb-bus-R;
#X text 390 320 TTB-MONITOR-V1;
#X obj 390 340 r ttb-route-live;
#X obj 390 360 pack f 10;
#X obj 390 380 line~;
#X obj 390 400 *~;
#X obj 460 400 *~;
#X obj 390 460 r ttb-route-local;
#X obj 390 480 pack f 10;
#X obj 390 500 line~;
#X obj 390 520 *~;
#X obj 460 520 *~;
#X obj 540 340 loadbang;
#X msg 540 360 1;
#X obj 540 380 s ttb-route-live;
#X msg 620 360 0;
#X obj 620 380 s ttb-route-local;
#X connect 0 0 5 0;
#X connect 1 0 6 0;
#X connect 2 0 3 0;
#X connect 3 0 4 0;
#X connect 4 0 5 1;
#X connect 4 0 6 1;
#X connect 5 0 29 0;
#X connect 6 0 29 1;
#X connect 7 0 8 0;
#X connect 8 0 9 0;
#X connect 11 0 12 0;
#X connect 12 0 13 0;
#X connect 13 0 14 1;
#X connect 13 0 15 1;
#X connect 17 0 18 0;
#X connect 17 0 20 0;
#X connect 17 0 30 0;
#X connect 18 0 19 0;
#X connect 20 0 21 0;
#X connect 22 0 23 0;
#X connect 23 0 24 0;
#X connect 25 0 27 0;
#X connect 26 0 27 1;
#X connect 27 0 28 0;
#X connect 29 0 7 0;
#X connect 29 0 10 0;
#X connect 29 0 14 0;
#X connect 29 0 25 0;
#X connect 29 1 10 1;
#X connect 29 1 15 0;
#X connect 29 1 22 0;
#X connect 29 1 26 0;
#X connect 30 0 31 0;
#X connect 36 0 37 0;
#X connect 37 0 38 0;
#X connect 38 0 39 1;
#X connect 38 0 40 1;
#X connect 33 0 39 0;
#X connect 34 0 40 0;
#X connect 39 0 16 0;
#X connect 40 0 16 1;
#X connect 41 0 42 0;
#X connect 42 0 43 0;
#X connect 43 0 44 1;
#X connect 43 0 45 1;
#X connect 33 0 44 0;
#X connect 34 0 45 0;
#X connect 44 0 10 0;
#X connect 45 0 10 1;
#X connect 46 0 47 0;
#X connect 47 0 48 0;
#X connect 46 0 49 0;
#X connect 49 0 50 0;
