#N canvas 0 0 910 318 12;
#X obj 20 20 inlet;
#X obj 20 60 route ch1-vol ch1-pan ch1-gate ch1-fx ch2-vol ch2-pan ch2-gate ch2-fx ch3-vol ch3-pan ch3-gate ch3-fx ch4-vol ch4-pan ch4-gate ch4-fx masterVol hpVol fxReturn;
#X connect 0 0 1 0;
#X obj 20 110 s ch1-vol;
#X connect 1 0 2 0;
#X obj 190 110 s ch1-pan;
#X connect 1 1 3 0;
#X obj 360 110 s ch1-gate;
#X connect 1 2 4 0;
#X obj 530 110 s ch1-fx;
#X connect 1 3 5 0;
#X obj 700 110 s ch2-vol;
#X connect 1 4 6 0;
#X obj 20 138 s ch2-pan;
#X connect 1 5 7 0;
#X obj 190 138 s ch2-gate;
#X connect 1 6 8 0;
#X obj 360 138 s ch2-fx;
#X connect 1 7 9 0;
#X obj 530 138 s ch3-vol;
#X connect 1 8 10 0;
#X obj 700 138 s ch3-pan;
#X connect 1 9 11 0;
#X obj 20 166 s ch3-gate;
#X connect 1 10 12 0;
#X obj 190 166 s ch3-fx;
#X connect 1 11 13 0;
#X obj 360 166 s ch4-vol;
#X connect 1 12 14 0;
#X obj 530 166 s ch4-pan;
#X connect 1 13 15 0;
#X obj 700 166 s ch4-gate;
#X connect 1 14 16 0;
#X obj 20 194 s ch4-fx;
#X connect 1 15 17 0;
#X obj 190 194 s masterVol;
#X connect 1 16 18 0;
#X obj 360 194 s hpVol;
#X connect 1 17 19 0;
#X obj 530 194 s fxReturn;
#X connect 1 18 20 0;
#X obj 20 250 print mixer-unknown-fudi;
#X connect 1 19 21 0;
