#N canvas 140 28 1300 775 10;
#X text 20 10 TouchLab Sampler Slot 5 - v2 (per-slot autotrim \, routed input);
#X text 20 28 Cmds via slot args: sampler-autotrim-threshold 1 <dB> / sampler-autotrim-preroll 1 <ms>;
#X obj 20 60 loadbang;
#X obj 20 85 t b b b b b b b;
#X msg 20 115 1;
#X obj 20 140 s slot5-vol-in;
#X msg 120 115 1;
#X obj 120 140 s slot5-speed-in;
#X msg 220 115 0 0;
#X obj 220 140 s slot5-gate-cmd;
#X msg 320 115 0;
#X obj 320 140 s slot5-trim-start-in;
#X msg 440 115 -40;
#X obj 440 140 s slot5-autotrim-threshold-db;
#X msg 600 115 50;
#X obj 600 140 s slot5-autotrim-preroll-ms;
#X obj 760 140 s slot5-duration-recalc;
#X obj 20 190 r sampler-vol;
#X obj 20 215 route 5;
#X obj 20 240 clip 0 1;
#X obj 20 265 s slot5-vol-in;
#X obj 20 305 r slot5-vol-in;
#X obj 20 330 f;
#X obj 20 355 pack 0 20;
#X obj 20 380 line~;
#X obj 20 405 s~ slot5-vol-sig;
#X obj 240 190 r sampler-speed;
#X obj 240 215 route 5;
#X obj 240 240 clip 0.1 4;
#X obj 240 265 s slot5-speed-in;
#X obj 240 305 r slot5-speed-in;
#X obj 240 335 t b f;
#X obj 240 365 value slot5-speed;
#X obj 340 365 s slot5-duration-recalc;
#X obj 460 190 r sampler-trim;
#X obj 460 215 route 5;
#X obj 460 240 * 48000;
#X obj 460 265 max 0;
#X obj 460 290 t f b;
#X obj 580 320 value slot5-trim-end;
#X obj 460 320 min;
#X obj 460 350 s slot5-trim-start-in;
#X obj 460 390 r slot5-trim-start-in;
#X obj 460 415 t b f;
#X obj 460 445 value slot5-trim-start;
#X obj 580 445 s slot5-duration-recalc;
#X obj 740 190 r sampler-trim-end;
#X obj 740 215 route 5;
#X obj 740 240 * 48000;
#X obj 740 265 t f b;
#X obj 860 290 value slot5-trim-start;
#X obj 740 290 max;
#X obj 740 315 t f b;
#X obj 860 340 value slot5-length;
#X obj 740 340 min;
#X obj 740 370 s slot5-trim-end-in;
#X obj 740 410 r slot5-trim-end-in;
#X obj 740 435 t b f;
#X obj 740 465 value slot5-trim-end;
#X obj 860 465 s slot5-duration-recalc;
#X obj 1000 190 r slot5-autotrim-threshold-db;
#X obj 1000 215 expr pow(10 \, $f1/20);
#X obj 1000 245 value autotrim-threshold-lin;
#X obj 1000 290 r slot5-autotrim-preroll-ms;
#X obj 1000 315 * 48;
#X obj 1000 340 value autotrim-preroll-samples;
#X obj 20 500 r sampler-load;
#X obj 20 525 route 5;
#X obj 20 550 list;
#X obj 20 575 list prepend read -resize;
#X obj 20 600 list append slot5;
#X obj 20 625 list trim;
#X obj 20 650 soundfiler;
#X obj 20 680 t f f b;
#X msg 140 705 0;
#X obj 140 730 s slot5-trim-start-in;
#X obj 20 710 value slot5-length;
#X obj 20 735 s slot5-trim-end-in;
#X obj 260 500 r slot5-duration-recalc;
#X obj 260 525 t b b b;
#X obj 460 550 value slot5-speed;
#X obj 360 550 value slot5-trim-end;
#X obj 260 550 value slot5-trim-start;
#X obj 260 580 expr ($f2 - $f1) / (48 * $f3);
#X obj 260 610 value slot5-duration;
#X obj 700 500 r slot5-pos-cmd;
#X obj 700 525 line~;
#X obj 700 550 s~ slot5-pos-sig;
#X obj 900 500 r slot5-gate-cmd;
#X obj 900 525 line~;
#X obj 900 550 s~ slot5-gate-sig;
#X obj 700 600 r~ slot5-pos-sig;
#X obj 700 625 tabread4~ slot5;
#X obj 840 650 r~ slot5-vol-sig;
#X obj 700 675 *~;
#X obj 840 705 r~ slot5-gate-sig;
#X obj 700 730 *~;
#X obj 700 760 dac~;
#X obj 20 820 r sampler-play;
#X obj 20 845 route 5;
#X obj 20 870 t b b b b b;
#X msg 20 900 1;
#X obj 20 925 value slot5-play-active;
#X obj 140 900 value slot5-trim-start;
#X obj 140 925 pack 0 0;
#X obj 140 950 s slot5-pos-cmd;
#X obj 280 900 t b b;
#X obj 280 925 value slot5-duration;
#X obj 380 925 value slot5-trim-end;
#X obj 280 955 pack f f;
#X obj 280 980 s slot5-pos-cmd;
#X obj 500 900 t b b;
#X msg 500 925 1 10;
#X obj 500 950 s slot5-gate-cmd;
#X obj 620 925 value slot5-duration;
#X obj 620 950 delay 0;
#X obj 620 975 s slot5-natural-end;
#X obj 760 900 f 5;
#X obj 760 925 list prepend sampler-status;
#X obj 760 950 list append playing;
#X obj 760 975 s sampler-status-out;
#X obj 20 1030 r sampler-stop;
#X obj 20 1055 route 5;
#X obj 20 1080 t b b b b;
#X msg 20 1110 0;
#X obj 20 1135 value slot5-play-active;
#X msg 140 1110 stop;
#X obj 140 1135 s slot5-pos-cmd;
#X msg 260 1110 0 10;
#X obj 260 1135 s slot5-gate-cmd;
#X obj 380 1110 f 5;
#X obj 380 1135 list prepend sampler-status;
#X obj 380 1160 list append stopped;
#X obj 380 1185 s sampler-status-out;
#X obj 520 1030 r slot5-natural-end;
#X obj 520 1055 value slot5-play-active;
#X obj 520 1080 sel 1;
#X obj 520 1105 t b b b;
#X msg 520 1135 0;
#X obj 520 1160 value slot5-play-active;
#X msg 640 1135 0 10;
#X obj 640 1160 s slot5-gate-cmd;
#X obj 760 1135 f 5;
#X obj 760 1160 list prepend sampler-status;
#X obj 760 1185 list append stopped;
#X obj 760 1210 s sampler-status-out;
#X obj 20 1260 receive~ slot5-src-sig;
#X obj 20 1290 tabwrite~ slot5;
#X obj 200 1260 timer;
#X obj 340 1260 r sampler-rec-start;
#X obj 340 1285 route 5;
#X obj 340 1310 t b b b b;
#X msg 340 1340 \; slot5 resize 2.88e+06;
#X obj 580 1340 f 5;
#X obj 580 1365 list prepend sampler-status;
#X obj 580 1390 list append recording;
#X obj 580 1415 s sampler-status-out;
#X obj 20 1450 r sampler-rec-stop;
#X obj 20 1475 route 5;
#X obj 20 1500 t b b b b b b b;
#X msg 20 1530 stop;
#X obj 180 1530 * 48;
#X obj 180 1555 value slot5-length;
#X msg 320 1530 0;
#X obj 320 1555 s slot5-trim-start-in;
#X obj 440 1530 value slot5-length;
#X obj 440 1555 s slot5-trim-end-in;
#X obj 560 1530 value slot5-length;
#X obj 560 1555 list prepend write -nframes;
#X obj 596 1673 list trim;
#X obj 596 1694 soundfiler;
#X obj 943 1522 f 5;
#X obj 943 1547 list prepend sampler-status;
#X obj 943 1572 list append rec-stopped;
#X obj 943 1597 s sampler-status-out;
#X msg 1000 1260 read -resize samples/slot5.wav slot5;
#X obj 20 1680 r sampler-autotrim;
#X obj 20 1705 route 5;
#X obj 20 1730 s slot5-do-autotrim;
#X obj 200 1680 r slot5-do-autotrim;
#X obj 200 1705 t b b b;
#X msg 200 1735 0;
#X obj 200 1760 value at-counter;
#X obj 340 1735 value autotrim-threshold-lin;
#X obj 340 1760 > 0;
#X obj 500 1735 value slot5-length;
#X obj 500 1760 until;
#X obj 500 1790 t b b;
#X obj 500 1820 value at-counter;
#X obj 500 1845 t f f;
#X obj 620 1875 value at-hit-candidate;
#X obj 500 1875 tabread slot5;
#X obj 500 1905 expr abs($f1);
#X obj 500 1935 sel 1;
#X obj 500 1965 t b b b;
#X obj 700 1790 value at-counter;
#X obj 700 1820 + 1;
#X obj 700 1845 value at-counter;
#X obj 620 1995 t b b;
#X obj 620 2025 value autotrim-preroll-samples;
#X obj 740 2025 value at-hit-candidate;
#X obj 620 2055 -;
#X obj 620 2080 max 0;
#X obj 620 2105 s slot5-trim-start-in;
#X obj 880 1995 f 5;
#X obj 880 2020 list prepend sampler-status;
#X obj 880 2045 list append autotrim-done;
#X obj 880 2070 s sampler-status-out;
#N canvas 0 0 450 300 (subpatch) 0;
#X array slot5 2.88e+06 float 2;
#X coords 0 1 2.88e+06 -1 200 140 1 0 0;
#X restore 1100 900 graph;
#X obj 900 640 r sampler-master-vol;
#X obj 900 670 pack 0 20;
#X obj 900 700 line~;
#X obj 800 730 *~;
#X text 900 615 MASTER-VOL-PATCH-V2;
#X obj 810 1549 r sampler-rec-path;
#X obj 809 1574 route 5;
#X obj 810 1602 symbol;
#X obj 812 1631 s slot5-rec-path-sym;
#X obj 676 1578 r slot5-rec-path-sym;
#X obj 560 1579 list append -wave;
#X obj 596 1626 list append;
#X obj 596 1647 list append slot5;
#X connect 2 0 3 0;
#X connect 3 0 16 0;
#X connect 3 0 175 0;
#X connect 3 1 14 0;
#X connect 3 2 12 0;
#X connect 3 3 10 0;
#X connect 3 4 8 0;
#X connect 3 5 6 0;
#X connect 3 6 4 0;
#X connect 4 0 5 0;
#X connect 6 0 7 0;
#X connect 8 0 9 0;
#X connect 10 0 11 0;
#X connect 12 0 13 0;
#X connect 14 0 15 0;
#X connect 17 0 18 0;
#X connect 18 0 19 0;
#X connect 19 0 20 0;
#X connect 21 0 22 0;
#X connect 22 0 23 0;
#X connect 23 0 24 0;
#X connect 24 0 25 0;
#X connect 26 0 27 0;
#X connect 27 0 28 0;
#X connect 28 0 29 0;
#X connect 30 0 31 0;
#X connect 31 0 33 0;
#X connect 31 1 32 0;
#X connect 34 0 35 0;
#X connect 35 0 36 0;
#X connect 36 0 37 0;
#X connect 37 0 38 0;
#X connect 38 0 40 0;
#X connect 38 1 39 0;
#X connect 39 0 40 1;
#X connect 40 0 41 0;
#X connect 42 0 43 0;
#X connect 43 0 45 0;
#X connect 43 1 44 0;
#X connect 46 0 47 0;
#X connect 47 0 48 0;
#X connect 48 0 49 0;
#X connect 49 0 51 0;
#X connect 49 1 50 0;
#X connect 50 0 51 1;
#X connect 51 0 52 0;
#X connect 52 0 54 0;
#X connect 52 1 53 0;
#X connect 53 0 54 1;
#X connect 54 0 55 0;
#X connect 56 0 57 0;
#X connect 57 0 59 0;
#X connect 57 1 58 0;
#X connect 60 0 61 0;
#X connect 61 0 62 0;
#X connect 63 0 64 0;
#X connect 64 0 65 0;
#X connect 66 0 67 0;
#X connect 67 0 68 0;
#X connect 68 0 69 0;
#X connect 69 0 70 0;
#X connect 70 0 71 0;
#X connect 71 0 72 0;
#X connect 72 0 73 0;
#X connect 73 0 77 0;
#X connect 73 1 76 0;
#X connect 73 2 74 0;
#X connect 74 0 75 0;
#X connect 78 0 79 0;
#X connect 79 0 82 0;
#X connect 79 1 81 0;
#X connect 79 2 80 0;
#X connect 80 0 83 2;
#X connect 81 0 83 1;
#X connect 82 0 83 0;
#X connect 83 0 84 0;
#X connect 85 0 86 0;
#X connect 86 0 87 0;
#X connect 88 0 89 0;
#X connect 89 0 90 0;
#X connect 91 0 92 0;
#X connect 92 0 94 0;
#X connect 93 0 94 1;
#X connect 94 0 96 0;
#X connect 95 0 96 1;
#X connect 96 0 212 0;
#X connect 98 0 99 0;
#X connect 99 0 100 0;
#X connect 100 0 117 0;
#X connect 100 1 111 0;
#X connect 100 2 106 0;
#X connect 100 3 103 0;
#X connect 100 4 101 0;
#X connect 101 0 102 0;
#X connect 103 0 104 0;
#X connect 104 0 105 0;
#X connect 106 0 108 0;
#X connect 106 1 107 0;
#X connect 107 0 109 1;
#X connect 108 0 109 0;
#X connect 109 0 110 0;
#X connect 111 0 114 0;
#X connect 111 1 112 0;
#X connect 112 0 113 0;
#X connect 114 0 115 0;
#X connect 115 0 116 0;
#X connect 117 0 118 0;
#X connect 118 0 119 0;
#X connect 119 0 120 0;
#X connect 121 0 122 0;
#X connect 122 0 123 0;
#X connect 123 0 130 0;
#X connect 123 1 128 0;
#X connect 123 2 126 0;
#X connect 123 3 124 0;
#X connect 124 0 125 0;
#X connect 126 0 127 0;
#X connect 128 0 129 0;
#X connect 130 0 131 0;
#X connect 131 0 132 0;
#X connect 132 0 133 0;
#X connect 134 0 135 0;
#X connect 135 0 136 0;
#X connect 136 0 137 0;
#X connect 137 0 142 0;
#X connect 137 1 140 0;
#X connect 137 2 138 0;
#X connect 138 0 139 0;
#X connect 140 0 141 0;
#X connect 142 0 143 0;
#X connect 143 0 144 0;
#X connect 144 0 145 0;
#X connect 146 0 147 0;
#X connect 148 0 161 0;
#X connect 149 0 150 0;
#X connect 150 0 151 0;
#X connect 151 0 153 0;
#X connect 151 1 148 0;
#X connect 151 2 147 0;
#X connect 151 3 152 0;
#X connect 153 0 154 0;
#X connect 154 0 155 0;
#X connect 155 0 156 0;
#X connect 157 0 158 0;
#X connect 158 0 159 0;
#X connect 159 0 171 0;
#X connect 159 1 178 0;
#X connect 159 2 167 0;
#X connect 159 3 165 0;
#X connect 159 4 163 0;
#X connect 159 5 148 1;
#X connect 159 6 160 0;
#X connect 160 0 147 0;
#X connect 161 0 162 0;
#X connect 163 0 164 0;
#X connect 165 0 166 0;
#X connect 167 0 168 0;
#X connect 168 0 219 0;
#X connect 169 0 170 0;
#X connect 171 0 172 0;
#X connect 172 0 173 0;
#X connect 173 0 174 0;
#X connect 175 0 72 0;
#X connect 176 0 177 0;
#X connect 177 0 178 0;
#X connect 179 0 180 0;
#X connect 180 0 185 0;
#X connect 180 1 183 0;
#X connect 180 2 181 0;
#X connect 181 0 182 0;
#X connect 183 0 184 1;
#X connect 184 0 193 0;
#X connect 185 0 186 0;
#X connect 186 0 187 0;
#X connect 187 0 195 0;
#X connect 187 1 188 0;
#X connect 188 0 189 0;
#X connect 189 0 191 0;
#X connect 189 1 190 0;
#X connect 191 0 192 0;
#X connect 192 0 184 0;
#X connect 193 0 194 0;
#X connect 194 0 204 0;
#X connect 194 1 198 0;
#X connect 194 2 186 1;
#X connect 195 0 196 0;
#X connect 196 0 197 0;
#X connect 198 0 200 0;
#X connect 198 1 199 0;
#X connect 199 0 201 1;
#X connect 200 0 201 0;
#X connect 201 0 202 0;
#X connect 202 0 203 0;
#X connect 204 0 205 0;
#X connect 205 0 206 0;
#X connect 206 0 207 0;
#X connect 209 0 210 0;
#X connect 210 0 211 0;
#X connect 211 0 212 1;
#X connect 212 0 97 0;
#X connect 212 0 97 1;
#X connect 214 0 215 0;
#X connect 215 0 216 0;
#X connect 216 0 217 0;
#X connect 218 0 220 1;
#X connect 219 0 220 0;
#X connect 220 0 221 0;
#X connect 221 0 169 0;
