#N canvas 0 0 1400 803 12;
#X obj 20 20 loadbang;
#X msg 20 42 \; pd dsp 1;
#X connect 0 0 1 0;
#X obj 20 80 netreceive 9000;
#X obj 20 130 fx-bus;
#X obj 20 160 master-section;
#X obj 20 190 vu-sender;
#X obj 20 240 adc~ 1;
#X obj 20 262 throw~ ch1;
#X connect 6 0 7 0;
#X obj 20 300 adc~ 2;
#X obj 20 322 throw~ ch2;
#X connect 8 0 9 0;
#X obj 20 360 adc~ 3;
#X obj 20 382 throw~ ch3;
#X connect 10 0 11 0;
#X obj 20 420 adc~ 4;
#X obj 20 442 throw~ ch4;
#X connect 12 0 13 0;
#X obj 20 500 ch1;
#X obj 20 530 ch2;
#X obj 20 560 ch3;
#X obj 20 590 ch4;
#X msg 268 272 set-name 1 Bas;
#X obj 268 292 s mixer-info;
#X connect 0 0 18 0;
#X connect 18 0 19 0;
#X msg 268 316 set-name 2 Piano;
#X obj 268 336 s mixer-info;
#X connect 0 0 20 0;
#X connect 20 0 21 0;
#X msg 268 360 set-name 3 Gitaar;
#X obj 268 380 s mixer-info;
#X connect 0 0 22 0;
#X connect 22 0 23 0;
#X msg 268 404 set-name 4 Zang;
#X obj 268 424 s mixer-info;
#X connect 0 0 24 0;
#X connect 24 0 25 0;
#X msg 460 91 channel-count 4;
#X obj 460 111 s mixer-info;
#X connect 0 0 26 0;
#X connect 26 0 27 0;
#X obj 633 27 netreceive -u -b 9002;
#X obj 633 57 fudiparse;
#X obj 633 87 route sampler-load sampler-play sampler-stop sampler-vol sampler-speed sampler-rec-start sampler-rec-stop sampler-trim sampler-trim-end sampler-autotrim sampler-autotrim-threshold sampler-autotrim-preroll sampler-router-input sampler-master-vol sampler-rec-path;
#X connect 28 0 29 0;
#X connect 29 0 30 0;
#X obj 638 530 s sampler-load;
#X connect 30 0 31 0;
#X obj 664 503 s sampler-play;
#X connect 30 1 32 0;
#X obj 688 472 s sampler-stop;
#X connect 30 2 33 0;
#X obj 715 446 s sampler-vol;
#X connect 30 3 34 0;
#X obj 742 419 s sampler-speed;
#X connect 30 4 35 0;
#X obj 769 394 s sampler-rec-start;
#X connect 30 5 36 0;
#X obj 798 365 s sampler-rec-stop;
#X connect 30 6 37 0;
#X obj 826 340 s sampler-trim;
#X connect 30 7 38 0;
#X obj 855 316 s sampler-trim-end;
#X connect 30 8 39 0;
#X obj 882 293 s sampler-autotrim;
#X connect 30 9 40 0;
#X obj 910 268 s sampler-autotrim-threshold;
#X connect 30 10 41 0;
#X obj 936 243 s sampler-autotrim-preroll;
#X connect 30 11 42 0;
#X obj 965 218 s sampler-router-input;
#X connect 30 12 43 0;
#X obj 1022 173 print sampler-unknown-fudi;
#X connect 30 15 44 0;
#X obj 456 142 r sampler-status-out;
#X obj 456 167 fudiformat;
#X obj 456 192 netsend -u -b;
#X msg 456 217 connect 127.0.0.1 9003;
#X connect 45 0 46 0;
#X connect 46 0 47 0;
#X connect 0 0 48 0;
#X connect 48 0 47 0;
#X obj 461 229 sampler-router;
#X obj 462 262 sampler-slot-1;
#X obj 462 285 sampler-slot-2;
#X obj 463 309 sampler-slot-3;
#X obj 463 332 sampler-slot-4;
#X obj 463 355 sampler-slot-5;
#X obj 463 379 sampler-slot-6;
#X obj 463 404 sampler-slot-7;
#X obj 463 428 sampler-slot-8;
#X obj 900 230 s sampler-master-vol;
#X text 1100 230 MASTER-VOL-HOST-PATCH-V1;
#X connect 30 13 58 0;
#X obj 2000 1200 s sampler-rec-path;
#X text 2200 1200 REC-PATH-HOST-PATCH-V1;
#X connect 30 14 60 0;
