#N canvas 0 0 1400 900 12;
#X obj 20 20 loadbang;
#X msg 20 42 \; pd dsp 1;
#X connect 0 0 1 0;
#X obj 20 80 netreceive 9000;
#X obj 200 80 mixer-router;
#X connect 2 0 3 0;
#X obj 20 130 fx-bus;
#X obj 20 160 master-section;
#X obj 20 190 vu-sender;
#X obj 20 240 adc~ 1;
#X obj 20 262 throw~ ch1;
#X connect 7 0 8 0;
#X obj 20 300 adc~ 2;
#X obj 20 322 throw~ ch2;
#X connect 9 0 10 0;
#X obj 20 360 adc~ 3;
#X obj 20 382 throw~ ch3;
#X connect 11 0 12 0;
#X obj 20 420 adc~ 4;
#X obj 20 442 throw~ ch4;
#X connect 13 0 14 0;
#X obj 20 500 ch1;
#X obj 20 530 ch2;
#X obj 20 560 ch3;
#X obj 20 590 ch4;
#X msg 400 640 set-name 1 Bas;
#X obj 400 660 s mixer-info;
#X connect 0 0 19 0;
#X connect 19 0 20 0;
#X msg 400 684 set-name 2 Piano;
#X obj 400 704 s mixer-info;
#X connect 0 0 21 0;
#X connect 21 0 22 0;
#X msg 400 728 set-name 3 Gitaar;
#X obj 400 748 s mixer-info;
#X connect 0 0 23 0;
#X connect 23 0 24 0;
#X msg 400 772 set-name 4 Zang;
#X obj 400 792 s mixer-info;
#X connect 0 0 25 0;
#X connect 25 0 26 0;
#X msg 650 240 channel-count 4;
#X obj 650 260 s mixer-info;
#X connect 0 0 27 0;
#X connect 27 0 28 0;
