#N canvas 0 0 500 600 12;
#X obj 10 20 metro 50;
#X obj 10 40 loadbang;
#X msg 10 60 bang;
#X obj 10 80 fudiformat;
#X obj 10 100 netsend -u -b;
#X msg 10 130 connect 127.0.0.1 9001;
#X obj 200 20 r vu-out;
#X connect 1 0 2 0;
#X connect 2 0 0 0;
#X connect 6 0 3 0;
#X connect 3 0 4 0;
#X connect 1 0 5 0;
#X connect 5 0 4 0;
#X obj 10 120 r ch1-vu;
#X obj 10 140 list prepend vu 1;
#X obj 10 160 s vu-out;
#X connect 7 0 8 0;
#X connect 8 0 9 0;
#X obj 10 200 r ch2-vu;
#X obj 10 220 list prepend vu 2;
#X obj 10 240 s vu-out;
#X connect 10 0 11 0;
#X connect 11 0 12 0;
#X obj 10 280 r ch3-vu;
#X obj 10 300 list prepend vu 3;
#X obj 10 320 s vu-out;
#X connect 13 0 14 0;
#X connect 14 0 15 0;
#X obj 10 360 r ch4-vu;
#X obj 10 380 list prepend vu 4;
#X obj 10 400 s vu-out;
#X connect 16 0 17 0;
#X connect 17 0 18 0;
#X obj 300 120 r masterVuL;
#X obj 300 140 list prepend vu masterL;
#X obj 300 160 s vu-out;
#X connect 19 0 20 0;
#X connect 20 0 21 0;
#X obj 400 120 r masterVuR;
#X obj 400 140 list prepend vu masterR;
#X obj 400 160 s vu-out;
#X connect 22 0 23 0;
#X connect 23 0 24 0;
